<svg width="384" height="81" viewBox="0 0 384 81" fill="none" xmlns="http://www.w3.org/2000/svg">
<g clip-path="url(#clip0_35_285)">
<path fill-rule="evenodd" clip-rule="evenodd" d="M19.5137 17.0559L28.6822 26.2238C31.2901 28.8215 34.821 30.28 38.5019 30.28C42.1828 30.28 45.7137 28.8215 48.3216 26.2238L57.4896 17.0564L51.9224 11.4893L42.7545 20.6573C41.6226 21.7777 40.0943 22.4062 38.5016 22.4062C36.909 22.4062 35.3807 21.7777 34.2488 20.6573L25.0808 11.4866L19.5137 17.0559Z" fill="#E4FF13"/>
<path fill-rule="evenodd" clip-rule="evenodd" d="M60.8927 21.4314L51.7258 30.5994C49.1282 33.2073 47.6697 36.7382 47.6697 40.4191C47.6697 44.1 49.1282 47.6309 51.7258 50.2388L60.8938 59.4068L66.4604 53.8402L57.2913 44.6717C56.1709 43.5399 55.5424 42.0116 55.5424 40.4191C55.5424 38.8265 56.1709 37.2983 57.2913 36.1665L66.4598 26.998L60.8927 21.4314Z" fill="#51FF85"/>
<path fill-rule="evenodd" clip-rule="evenodd" d="M57.4895 64.9629L48.321 55.7944C45.7132 53.1968 42.1824 51.7383 38.5016 51.7383C34.8208 51.7383 31.2899 53.1968 28.6821 55.7944L19.5142 64.9629L25.0813 70.5295L34.2487 61.3615C35.3806 60.241 36.9089 59.6125 38.5016 59.6125C40.0942 59.6125 41.6225 60.241 42.7544 61.3615L51.9229 70.5295L57.4895 64.9629Z" fill="#E4FF13"/>
<path fill-rule="evenodd" clip-rule="evenodd" d="M14.9995 59.4069L24.1675 50.2378C26.7651 47.6299 28.2236 44.099 28.2236 40.4181C28.2236 36.7372 26.7651 33.2063 24.1675 30.5984L15 21.4304L9.43292 26.9981L18.6009 36.1661C19.7214 37.2979 20.3499 38.8263 20.3499 40.4189C20.3499 42.0116 19.7214 43.5399 18.6009 44.6718L9.43237 53.8403L14.9995 59.4069Z" fill="#51FF85"/>
<path fill-rule="evenodd" clip-rule="evenodd" d="M6.58657 46.8067C7.88928 46.8067 9.16272 46.4204 10.2459 45.6967C11.329 44.9729 12.1733 43.9442 12.6718 42.7407C13.1703 41.5372 13.3007 40.2128 13.0466 38.9351C12.7924 37.6575 12.1651 36.4839 11.244 35.5627C10.3228 34.6416 9.14922 34.0143 7.87155 33.7601C6.59388 33.506 5.26954 33.6364 4.066 34.1349C2.86246 34.6334 1.83378 35.4777 1.11004 36.5608C0.3863 37.644 0 38.9174 0 40.2201C0 41.967 0.693942 43.6423 1.92916 44.8775C3.16439 46.1128 4.83971 46.8067 6.58657 46.8067Z" fill="#51FF85"/>
<path fill-rule="evenodd" clip-rule="evenodd" d="M31.915 8.30587C31.915 9.6087 32.3014 10.8823 33.0252 11.9655C33.749 13.0488 34.7778 13.8931 35.9815 14.3916C37.1852 14.8902 38.5096 15.0206 39.7874 14.7664C41.0652 14.5122 42.2389 13.8847 43.1601 12.9635C44.0813 12.0422 44.7087 10.8684 44.9628 9.59061C45.2169 8.3128 45.0863 6.98834 44.5877 5.78471C44.0891 4.58108 43.2447 3.55235 42.1614 2.82862C41.078 2.10488 39.8044 1.71864 38.5016 1.71875C37.6366 1.71875 36.7801 1.88913 35.9809 2.22017C35.1818 2.55121 34.4556 3.03643 33.844 3.6481C33.2324 4.25978 32.7472 4.98594 32.4163 5.78513C32.0853 6.58431 31.915 7.44086 31.915 8.30587Z" fill="#E4FF13"/>
<path fill-rule="evenodd" clip-rule="evenodd" d="M70.4167 33.6335C69.114 33.6335 67.8405 34.0198 66.7574 34.7436C65.6742 35.4673 64.83 36.496 64.3315 37.6995C63.8329 38.9031 63.7025 40.2274 63.9566 41.5051C64.2108 42.7828 64.8381 43.9564 65.7592 44.8775C66.6804 45.7987 67.854 46.426 69.1317 46.6801C70.4094 46.9343 71.7337 46.8038 72.9372 46.3053C74.1408 45.8068 75.1695 44.9626 75.8932 43.8794C76.6169 42.7963 77.0032 41.5228 77.0032 40.2201C77.0032 39.3552 76.8329 38.4987 76.5019 37.6995C76.1709 36.9004 75.6857 36.1743 75.0741 35.5627C74.4625 34.9511 73.7363 34.4659 72.9372 34.1349C72.1381 33.8039 71.2816 33.6335 70.4167 33.6335Z" fill="#51FF85"/>
<path fill-rule="evenodd" clip-rule="evenodd" d="M45.0888 72.1331C45.0885 70.8304 44.7019 69.557 43.9779 68.4739C43.2539 67.3909 42.225 66.5469 41.0213 66.0486C39.8177 65.5502 38.4933 65.42 37.2156 65.6744C35.9379 65.9287 34.7644 66.5562 33.8433 67.4775C32.9222 68.3988 32.295 69.5725 32.041 70.8502C31.787 72.128 31.9175 73.4523 32.4161 74.6559C32.9147 75.8594 33.759 76.8881 34.8422 77.6118C35.9254 78.3355 37.1989 78.7218 38.5017 78.7218C39.3668 78.7218 40.2235 78.5514 41.0228 78.2203C41.8221 77.8891 42.5483 77.4038 43.16 76.7919C43.7717 76.1801 44.2569 75.4537 44.5878 74.6544C44.9188 73.855 45.089 72.9983 45.0888 72.1331Z" fill="#E4FF13"/>
</g>
<path d="M126.551 62.9245C114.263 62.9245 105.367 54.6045 105.367 40.4605C105.367 26.3165 114.263 17.9965 126.551 17.9965C136.791 17.9965 144.215 23.8845 145.751 34.0605H137.623C136.151 28.3645 132.055 25.1005 126.551 25.1005C119.127 25.1005 113.879 30.7965 113.879 40.4605C113.879 50.1245 119.127 55.7565 126.551 55.7565C132.119 55.7565 136.407 52.4285 137.751 46.5405H145.943C144.535 56.9085 136.855 62.9245 126.551 62.9245ZM166.358 62.9245C156.566 62.9245 150.102 56.0125 150.102 46.8605C150.102 37.6445 156.566 30.7965 166.358 30.7965C176.15 30.7965 182.614 37.6445 182.614 46.8605C182.614 56.0125 176.15 62.9245 166.358 62.9245ZM166.358 57.4845C171.734 57.4845 174.806 53.0045 174.806 46.8605C174.806 40.7165 171.734 36.2365 166.358 36.2365C161.046 36.2365 157.91 40.7165 157.91 46.8605C157.91 53.0045 161.046 57.4845 166.358 57.4845ZM208.493 62.9245C196.333 62.9245 187.117 54.6045 187.117 40.4605C187.117 26.3165 196.333 17.9965 208.493 17.9965C220.653 17.9965 229.869 26.3165 229.869 40.4605C229.869 54.6045 220.653 62.9245 208.493 62.9245ZM208.493 55.7565C215.789 55.7565 221.421 50.1245 221.421 40.4605C221.421 30.7965 215.789 25.1005 208.493 25.1005C201.197 25.1005 195.629 30.7965 195.629 40.4605C195.629 50.1245 201.197 55.7565 208.493 55.7565ZM233.712 62.2205V57.1005H240.432V36.6205H235.632V31.5005H240.432V27.7885C240.432 21.6445 244.272 17.9965 251.056 17.9965C257.904 17.9965 261.104 21.6445 261.616 26.2525H255.6C255.152 24.3325 254.064 22.6685 251.632 22.6685C249.136 22.6685 247.6 24.3965 247.6 28.1725V31.5005H255.28V36.6205H247.6V57.1005H255.92V62.2205H233.712ZM262.837 62.2205V57.1005H269.557V36.6205H264.757V31.5005H269.557V27.7885C269.557 21.6445 273.397 17.9965 280.181 17.9965C287.029 17.9965 290.229 21.6445 290.741 26.2525H284.725C284.277 24.3325 283.189 22.6685 280.757 22.6685C278.261 22.6685 276.725 24.3965 276.725 28.1725V31.5005H284.405V36.6205H276.725V57.1005H285.045V62.2205H262.837ZM293.289 62.2205V57.1005H300.009V36.6205H295.209V31.5005H307.177V57.1005H313.577V62.2205H293.289ZM303.465 26.8925C300.265 26.8925 298.473 25.5485 298.473 23.2445C298.473 21.1965 300.265 19.7885 303.465 19.7885C306.537 19.7885 308.329 21.1965 308.329 23.2445C308.329 25.5485 306.537 26.8925 303.465 26.8925ZM331.349 62.9245C321.557 62.9245 315.477 56.0125 315.477 46.8605C315.477 37.6445 321.557 30.7965 331.349 30.7965C339.541 30.7965 345.301 35.6605 346.133 42.8925H338.773C338.069 38.7965 335.381 36.1725 331.413 36.1725C326.101 36.1725 323.285 40.6525 323.285 46.8605C323.285 53.0685 326.101 57.5485 331.413 57.5485C335.381 57.5485 338.069 54.9245 338.773 50.8925H346.197C345.237 58.0605 339.541 62.9245 331.349 62.9245ZM365.911 62.9245C355.991 62.9245 350.039 56.0125 350.039 46.8605C350.039 37.7085 355.863 30.7965 365.975 30.7965C376.279 30.7965 381.271 37.6445 381.271 46.1565L381.207 47.8205H357.719C357.975 53.4525 360.919 57.6125 366.103 57.6125C370.007 57.6125 372.631 55.1805 373.591 51.9165H380.887C379.159 58.4445 373.847 62.9245 365.911 62.9245ZM373.847 44.6205C373.463 39.5645 370.711 36.1085 365.911 36.1085C360.983 36.1085 358.359 39.7565 357.847 44.6205H373.847Z" fill="#FEFEFE"/>
<defs>
<clipPath id="clip0_35_285">
<rect width="77.0032" height="77.0032" fill="white" transform="trandefault(0 1.71875)"/>
</clipPath>
</defs>
</svg>
