<svg width="31" height="30" viewBox="0 0 31 30" fill="none" xmlns="http://www.w3.org/2000/svg">
<g clip-path="url(#clip0_77_987)">
<path d="M24.5127 22.0312H6.81738L5.05957 29.0625H26.2705L24.5127 22.0312Z" fill="#00050C"/>
<path d="M19.2393 6.21085H23.9977L19.2393 1.45239V6.21085Z" fill="#00050C"/>
<path d="M6.81738 0.9375V13.2422H24.5127V7.96875H17.4814V0.9375H6.81738Z" fill="#00050C"/>
<path d="M28.0283 9.72656H26.2705V13.2422H28.0283V15C26.5547 15 4.72148 15 3.30176 15V13.2422H5.05957V9.72656H3.30176C1.84781 9.72656 0.665039 10.9093 0.665039 12.3633V25.5469H4.12658L5.44494 20.2734H25.8851L27.2035 25.5469H30.665V12.3633C30.665 10.9093 29.4823 9.72656 28.0283 9.72656ZM23.6338 18.5156H21.876V16.7578H23.6338V18.5156ZM27.1494 18.5156H25.3916V16.7578H27.1494V18.5156Z" fill="#00050C"/>
</g>
<defs>
<clipPath id="clip0_77_987">
<rect width="30" height="30" fill="white" transform="trandefault(0.665039)"/>
</clipPath>
</defs>
</svg>
