<svg width="31" height="30" viewBox="0 0 31 30" fill="none" xmlns="http://www.w3.org/2000/svg">
<path d="M24.3026 28.2422V8.38428H7.02785V28.2422H4.58789V30H26.7425V28.2422H24.3026ZM17.2028 17.3002H16.2227C15.9808 17.3002 15.784 17.497 15.784 17.7388V21.5301C15.784 21.7719 15.9808 21.9687 16.2227 21.9687H17.2028V23.7265H16.2227C15.0115 23.7265 14.0262 22.7412 14.0262 21.5301V17.7388C14.0262 16.5277 15.0115 15.5424 16.2227 15.5424H17.2028V17.3002ZM22.1071 28.2422H20.3493V12.3375H10.9811V28.2422H9.2233V10.5797H22.1071V28.2422Z" fill="#00050C"/>
<path d="M6.18603 3.89783C6.46377 3.7657 6.74449 3.63949 7.02791 3.5192V6.62479H24.3026V3.5192C24.586 3.63949 24.8667 3.7657 25.1445 3.89789L25.7852 4.2027L26.5404 2.61539L25.8997 2.31059C22.7225 0.798984 19.1835 0 15.6652 0C12.1469 0 8.60789 0.798984 5.43082 2.31053L4.79004 2.61539L5.54525 4.2027L6.18603 3.89783ZM12.3076 3.15357H19.0228V4.91139H12.3076V3.15357Z" fill="#00050C"/>
</svg>
