<svg width="31" height="30" viewBox="0 0 31 30" fill="none" xmlns="http://www.w3.org/2000/svg">
<g clip-path="url(#clip0_77_928)">
<path d="M8.39234 7.83221V6.04744H10.1502V7.83221C11.5465 8.03061 12.7948 8.69424 13.7329 9.66098V3.95312H4.80957V9.66104C5.74766 8.6943 6.996 8.03061 8.39234 7.83221Z" fill="#00050C"/>
<path d="M4.85645 13.3443H13.6854C13.3718 11.1887 11.5121 9.52759 9.27096 9.52759C7.02986 9.52759 5.17004 11.1888 4.85645 13.3443Z" fill="#00050C"/>
<path d="M0.856445 30H17.6864V0H0.856445V30ZM8.33019 27.6005L6.99818 26.4534L9.62225 23.4062H5.08715L10.2126 17.4541L11.5446 18.6011L8.92053 21.6484H13.4556L8.33019 27.6005ZM3.05189 2.19545H15.4909V15.1022H3.05189V2.19545Z" fill="#00050C"/>
<path d="M29.2646 2.3015V0H27.5067V2.3015H25.7489V0H23.9911V2.3015H23.1122V6.43236C23.1122 8.06748 24.2343 9.44543 25.7489 9.83672V27.3314C25.7489 27.8336 25.3404 28.2421 24.8382 28.2421C24.336 28.2421 23.9274 27.8336 23.9274 27.3314V16.8164C23.9274 15.3625 22.7446 14.1797 21.2907 14.1797H19.4609V15.9375H21.2907C21.7753 15.9375 22.1696 16.3318 22.1696 16.8164V27.3315C22.1696 28.8029 23.3667 30 24.8382 30C26.3096 30 27.5067 28.8029 27.5067 27.3315V9.83678C29.0213 9.44555 30.1435 8.06754 30.1435 6.43242V2.30156L29.2646 2.3015Z" fill="#00050C"/>
</g>
<defs>
<clipPath id="clip0_77_928">
<rect width="30" height="30" fill="white" transform="trandefault(0.5)"/>
</clipPath>
</defs>
</svg>
