<svg width="31" height="30" viewBox="0 0 31 30" fill="none" xmlns="http://www.w3.org/2000/svg">
<g clip-path="url(#clip0_81_1025)">
<path d="M17.4502 15.4966H18.2116V14.5034L17.4502 15.4966Z" fill="#00050C"/>
<path d="M26.2717 4.39336C23.4385 1.56029 19.6717 0 15.665 0C11.6584 0 7.89158 1.56029 5.0584 4.39336C2.22533 7.22654 0.665039 10.9934 0.665039 15C0.665039 19.0066 2.22533 22.7735 5.0584 25.6066C7.89158 28.4397 11.6584 30 15.665 30C19.6717 30 23.4385 28.4397 26.2717 25.6066C29.1047 22.7735 30.665 19.0066 30.665 15C30.665 10.9934 29.1047 7.22654 26.2717 4.39336ZM20.33 15.4966V16.9035H19.6017V17.9297H18.0293V16.9035H15.9023V15.4966L18.5258 12.1531H19.6017V15.4966H20.33ZM15.665 25.2539C10.011 25.2539 5.41113 20.654 5.41113 15C5.41113 9.346 10.011 4.74609 15.665 4.74609V3.1391L18.7955 5.625L15.665 8.1109V6.50391C10.9803 6.50391 7.16895 10.3153 7.16895 15C7.16895 19.6847 10.9803 23.4961 15.665 23.4961C20.3498 23.4961 24.1611 19.6847 24.1611 15H25.9189C25.9189 20.654 21.319 25.2539 15.665 25.2539ZM13.461 13.5269C13.3727 13.4607 13.2513 13.4276 13.0968 13.4276C12.9148 13.4276 12.7423 13.4745 12.5796 13.5683C12.4168 13.6621 12.2471 13.8138 12.0706 14.0235L11.0774 12.8565C11.1822 12.7407 11.3175 12.6345 11.483 12.5379C11.6485 12.4414 11.8318 12.3587 12.0333 12.2896C12.2346 12.2207 12.4484 12.1669 12.6747 12.1283C12.9009 12.0897 13.1326 12.0703 13.3699 12.0703C14.0043 12.0703 14.4857 12.2014 14.814 12.4634C15.1422 12.7255 15.3064 13.0911 15.3064 13.56C15.3064 13.7311 15.2844 13.8827 15.2402 14.0152C15.196 14.1476 15.1368 14.2676 15.0623 14.3752C14.9879 14.4828 14.8981 14.5808 14.7934 14.669C14.6885 14.7573 14.5782 14.8401 14.4624 14.9173C14.3244 15.0111 14.1796 15.1008 14.0279 15.1863C13.8761 15.2719 13.7258 15.367 13.5768 15.4718H15.3975V16.8787H11.0361C11.0361 16.6029 11.058 16.3601 11.1023 16.1504C11.1464 15.9408 11.2181 15.7519 11.3175 15.5835C11.4168 15.4153 11.5451 15.2648 11.7023 15.1324C11.8596 15 12.0541 14.8704 12.2858 14.7434C12.5838 14.5835 12.8196 14.4552 12.9934 14.3586C13.1672 14.2621 13.2982 14.1835 13.3865 14.1227C13.4747 14.062 13.5313 14.011 13.5562 13.9696C13.581 13.9282 13.5934 13.8827 13.5934 13.833C13.5934 13.6952 13.5492 13.5931 13.461 13.5269Z" fill="#00050C"/>
</g>
<defs>
<clipPath id="clip0_81_1025">
<rect width="30" height="30" fill="white" transform="trandefault(0.665039)"/>
</clipPath>
</defs>
</svg>
