<svg width="31" height="30" viewBox="0 0 31 30" fill="none" xmlns="http://www.w3.org/2000/svg">
<g clip-path="url(#clip0_77_923)">
<path d="M28.1846 15.2124H30.3936C29.7545 13.4413 28.0574 12.1715 26.0686 12.1715H24.3264L21.4335 6.21094H5.57684L3.75998 12.2312C2.23814 12.5059 1.03217 13.6983 0.735764 15.2124H3.00879V16.965H0.665039V21.663H2.55858C2.50502 21.378 2.47572 21.0846 2.47572 20.7841C2.47572 18.1638 4.6073 16.032 7.22777 16.032C9.84801 16.032 11.9796 18.1638 11.9796 20.7841C11.9796 21.0846 11.9503 21.378 11.8967 21.663H12.5339V12.1715H5.61415L6.88239 7.96875H12.5339V12.1715H14.2917V7.96875H20.3329L22.3727 12.1715H14.2917V21.6632H19.107C19.0534 21.378 19.0241 21.0846 19.0241 20.7843C19.0241 18.1638 21.1559 16.0323 23.7762 16.0323C26.3964 16.0323 28.5282 18.1638 28.5282 20.7843C28.5282 21.0846 28.4989 21.378 28.4453 21.6632H30.665V16.9652H28.1846V15.2124Z" fill="#00050C"/>
<path d="M7.22763 23.7783C8.87856 23.7783 10.2216 22.4352 10.2216 20.7843C10.2216 19.1331 8.87856 17.79 7.22763 17.79C5.57648 17.79 4.2334 19.1331 4.2334 20.7843C4.2334 22.4352 5.57648 23.7783 7.22763 23.7783Z" fill="#00050C"/>
<path d="M23.7765 23.7783C25.4274 23.7783 26.7707 22.4352 26.7707 20.7843C26.7707 19.1331 25.4274 17.79 23.7765 17.79C22.1255 17.79 20.7822 19.1331 20.7822 20.7843C20.7822 22.4352 22.1255 23.7783 23.7765 23.7783Z" fill="#00050C"/>
</g>
<defs>
<clipPath id="clip0_77_923">
<rect width="30" height="30" fill="white" transform="trandefault(0.665039)"/>
</clipPath>
</defs>
</svg>
