<svg width="31" height="30" viewBox="0 0 31 30" fill="none" xmlns="http://www.w3.org/2000/svg">
<g clip-path="url(#clip0_77_915)">
<path d="M10.2294 10.6423H0.5V16.1819H13.945L10.2294 10.6423Z" fill="#00050C"/>
<path d="M11.2323 19.6157C14.5637 19.6157 17.274 22.326 17.274 25.6575C17.274 25.895 17.26 26.1293 17.2332 26.3597H21.287V22.9963H18.5723V21.2385H21.287V20.4006C21.287 19.0415 20.1852 17.9397 18.8261 17.9397H0.5V26.3597H5.23133C5.20455 26.1293 5.19049 25.895 5.19049 25.6575C5.19049 22.3261 7.9008 19.6157 11.2323 19.6157Z" fill="#00050C"/>
<path d="M26.0661 13.1523H24.3083V28.2421H16.6914H14.7194C15.2565 27.5194 15.5748 26.6249 15.5748 25.6573C15.5748 23.2628 13.6268 21.3147 11.2323 21.3147C8.83777 21.3147 6.88971 23.2628 6.88971 25.6573C6.88971 26.6249 7.20805 27.5194 7.74512 28.2421H5.77309H0.5V29.9999H30.5V28.2421H26.0661V13.1523Z" fill="#00050C"/>
<path d="M25.297 3.67261H24.5049V5.30438C24.8028 5.30292 25.108 5.30175 25.297 5.30175C25.7565 5.30175 26.1447 4.92874 26.1447 4.48724C26.1447 4.04562 25.7565 3.67261 25.297 3.67261Z" fill="#00050C"/>
<path d="M19.0469 0V11.4533H30.5001V0H19.0469ZM25.297 7.05938C25.1112 7.05938 24.8043 7.06061 24.5049 7.06207V9.43359H22.7471V1.91467H25.297C26.7337 1.91467 27.9025 3.06861 27.9025 4.48705C27.9025 5.90549 26.7337 7.05938 25.297 7.05938Z" fill="#00050C"/>
</g>
<defs>
<clipPath id="clip0_77_915">
<rect width="30" height="30" fill="white" transform="trandefault(0.5)"/>
</clipPath>
</defs>
</svg>
