<svg width="31" height="30" viewBox="0 0 31 30" fill="none" xmlns="http://www.w3.org/2000/svg">
<g clip-path="url(#clip0_77_946)">
<path d="M17.2651 22.5945C16.292 21.6215 14.7087 21.6215 13.7357 22.5945C12.7626 23.5676 12.7626 25.1509 13.7357 26.124C14.2222 26.6106 14.8613 26.8538 15.5003 26.8538C16.1393 26.8538 16.7785 26.6106 17.265 26.124C18.2381 25.151 18.2381 23.5676 17.2651 22.5945Z" fill="#00050C"/>
<path d="M9.32324 18.1829L11.0879 19.9476C13.5206 17.5149 17.4787 17.5149 19.9114 19.9476L21.6761 18.1829C18.2705 14.7773 12.7289 14.7773 9.32324 18.1829Z" fill="#00050C"/>
<path d="M15.5004 9.38525C11.5006 9.38525 7.74031 10.9428 4.91211 13.7711L6.67678 15.5357C9.03359 13.1789 12.1672 11.8809 15.5003 11.8809C18.8333 11.8809 21.967 13.1789 24.3238 15.5357L26.0885 13.7711C23.2604 10.9428 19.5001 9.38525 15.5004 9.38525Z" fill="#00050C"/>
<path d="M15.5 3.14624C9.83375 3.14624 4.50664 5.35282 0.5 9.35946L2.26467 11.1241C5.79998 7.58888 10.5004 5.64192 15.5 5.64192C20.4996 5.64192 25.2 7.58888 28.7353 11.1242L30.5 9.35946C26.4934 5.35282 21.1663 3.14624 15.5 3.14624Z" fill="#00050C"/>
</g>
<defs>
<clipPath id="clip0_77_946">
<rect width="30" height="30" fill="white" transform="trandefault(0.5)"/>
</clipPath>
</defs>
</svg>
