<svg width="31" height="30" viewBox="0 0 31 30" fill="none" xmlns="http://www.w3.org/2000/svg">
<g clip-path="url(#clip0_77_1005)">
<path d="M21.9463 3.4043C21.9463 2.8125 22.7314 1.58789 23.3643 0.761719C23.9971 1.58789 24.7822 2.8125 24.7822 3.4043C24.7822 4.13672 24.3252 4.75195 23.7158 4.92773V4.28906C23.7158 4.08984 23.5576 3.9375 23.3643 3.9375C23.165 3.9375 23.0127 4.08984 23.0127 4.28906V4.92773C22.3975 4.75195 21.9463 4.13672 21.9463 3.4043ZM24.7881 7.07227C24.7881 6.88477 24.6357 6.72656 24.4424 6.72656H22.2803C22.0928 6.72656 21.9287 6.87891 21.9287 7.07227V16.8984H24.7881V7.07227ZM10.4033 17.6074C9.33105 17.5781 8.71582 18.8672 9.4541 19.6172C9.67676 19.8574 9.99316 19.998 10.3154 19.9863H19.6729C20.1357 19.998 20.1357 20.6836 19.6729 20.6895H10.333C10.3213 20.6953 6.69434 20.6953 6.68262 20.6953C5.73926 20.6953 4.96582 21.4629 4.96582 22.4062V23.0742H24.7939C26.2881 23.0801 27.5244 21.8379 27.5186 20.3438C27.5537 18.8789 26.2529 17.5781 24.7881 17.6133C24.7822 17.6074 10.4033 17.6074 10.4033 17.6074ZM27.9053 29.2383H3.94043C0.313477 29.0977 0.325195 23.9062 3.94043 23.7773H24.7822H27.9053C31.5264 23.9121 31.5146 29.1035 27.9053 29.2383ZM27.2139 26.1504H4.63184C4.16309 26.1504 4.18066 26.8594 4.63184 26.8535H27.2139C27.6826 26.8477 27.665 26.1562 27.2139 26.1504ZM9.03808 11.4082C8.85058 11.7539 8.7041 12.1172 8.59863 12.4922C8.5459 12.6797 8.50488 12.873 8.47559 13.0664C8.66309 13.1484 8.85058 13.2188 9.03808 13.2773C9.08496 13.2891 9.13184 13.2949 9.17871 13.3125C9.5127 13.4004 9.85254 13.459 10.1924 13.4766C11.2939 13.5293 12.3779 13.1953 13.2803 12.5918C14.4346 11.8242 15.2842 10.6113 15.4717 9.14648C15.3076 9.07617 15.1377 9.01758 14.9678 8.96484C14.9033 8.94727 14.8389 8.92969 14.7744 8.91797C14.6631 8.88867 14.5459 8.85938 14.4346 8.83594C14.3701 8.82422 14.2998 8.81836 14.2354 8.80664C14.124 8.78906 14.0127 8.77734 13.8955 8.76562C13.8252 8.75977 13.7549 8.75977 13.6787 8.75391C13.6143 8.75391 13.5557 8.74219 13.4912 8.74219C13.4502 8.74219 13.415 8.74805 13.3799 8.74805C13.2627 8.74805 13.1455 8.75977 13.0342 8.77148C12.9463 8.77734 12.8584 8.78906 12.7764 8.80078C12.665 8.81836 12.5537 8.8418 12.4424 8.86523C12.3604 8.88281 12.2725 8.90039 12.1904 8.91797C12.0557 8.95312 11.9326 9 11.8037 9.04102C11.7451 9.05859 11.6924 9.07617 11.6338 9.09961C11.4463 9.17578 11.2588 9.25781 11.083 9.35742C10.9072 9.45117 10.7432 9.55664 10.585 9.66797C10.3447 9.83789 10.1279 10.0371 9.92285 10.2422C9.57129 10.5879 9.27246 10.9805 9.03808 11.4082ZM2.97949 12.6445C3.87012 13.2129 4.9248 13.5293 5.99121 13.4766C6.30762 13.4648 6.62402 13.4062 6.93457 13.3301C7.19238 13.2656 7.45605 13.1836 7.70801 13.0723C7.67285 12.8262 7.62012 12.5977 7.5498 12.3633C7.53223 12.293 7.50293 12.2285 7.48535 12.1641C7.4502 12.0645 7.41504 11.959 7.37402 11.8652C7.32715 11.748 7.26855 11.6367 7.21582 11.5254C7.19238 11.4727 7.16895 11.4258 7.13965 11.373C7.06348 11.2383 6.98145 11.1152 6.89941 10.9863C6.88184 10.957 6.86426 10.9277 6.84082 10.8984C6.74707 10.7695 6.65332 10.6523 6.54785 10.5352C6.52441 10.5117 6.50684 10.4824 6.4834 10.459C6.38379 10.3535 6.28418 10.248 6.17285 10.1543C6.1377 10.1191 6.10254 10.0898 6.06738 10.0547C5.97363 9.97266 5.87402 9.89648 5.78027 9.82617C5.72168 9.78516 5.66895 9.73828 5.61035 9.69727C5.52832 9.64453 5.44629 9.5918 5.36426 9.53906C5.28223 9.48633 5.2002 9.43359 5.11816 9.38672C5.05371 9.35156 4.98926 9.32227 4.9248 9.29297C4.81934 9.24023 4.70801 9.1875 4.59668 9.14062C4.5498 9.12305 4.49707 9.10547 4.4502 9.08789C4.32129 9.04102 4.19238 8.98828 4.06348 8.95312C4.02246 8.94141 3.97559 8.92969 3.93457 8.91797C3.7998 8.88281 3.65918 8.84766 3.51855 8.81836C3.45996 8.80664 3.40723 8.80664 3.34863 8.79492C3.21973 8.77734 3.09668 8.75977 2.96777 8.74805C2.87402 8.74219 2.78027 8.74219 2.68066 8.74219C2.59277 8.74219 2.49902 8.73633 2.41113 8.74219C2.25293 8.74805 2.08887 8.77148 1.93066 8.79492C1.90137 8.80078 1.87793 8.80078 1.84863 8.80664C1.46191 8.87109 1.08105 8.98242 0.711914 9.14648C0.905273 10.6465 1.79004 11.877 2.97949 12.6445ZM6.77051 9.73242C6.88769 9.84961 6.99316 9.9668 7.09863 10.0898C7.30957 10.3359 7.49707 10.6055 7.66113 10.8867C7.8252 11.168 7.97168 11.4609 8.08887 11.7656C8.27051 11.3086 8.50488 10.875 8.78613 10.4824C9.09082 10.0547 9.44824 9.67383 9.85254 9.33984C10.0752 9.1582 10.3096 8.98828 10.5615 8.83594C10.5557 7.18945 9.58887 5.71289 8.08301 5.04492C6.58301 5.71289 5.61621 7.18359 5.60449 8.83594C5.74512 8.91797 5.87988 9.00586 6.01465 9.09961C6.29004 9.29297 6.53613 9.50391 6.77051 9.73242Z" fill="#00050C"/>
</g>
<defs>
<clipPath id="clip0_77_1005">
<rect width="30" height="30" fill="white" transform="trandefault(0.665039)"/>
</clipPath>
</defs>
</svg>
