<svg width="31" height="30" viewBox="0 0 31 30" fill="none" xmlns="http://www.w3.org/2000/svg">
<g clip-path="url(#clip0_77_979)">
<path d="M2.42285 30H4.18066V19.4531H8.62758L8.92078 15.9375H0.665039V19.4531H2.42285V30Z" fill="#00050C"/>
<path d="M9.5127 24.7266C9.5127 25.6973 10.2997 26.4844 11.2705 26.4844H14.7861V28.2422H11.2705V30H20.0596V28.2422H16.5439V26.4844H20.0596C21.0304 26.4844 21.8174 25.6973 21.8174 24.7266C21.8174 23.7557 21.0304 22.9688 20.0596 22.9688H16.5439V21.2109H14.7861V22.9688H11.2705C10.2997 22.9688 9.5127 23.7557 9.5127 24.7266Z" fill="#00050C"/>
<path d="M20.1935 10.519C20.1179 9.59977 19.3652 8.90625 18.4425 8.90625H12.8875C11.9665 8.90625 11.213 9.59889 11.1366 10.5182L10.3916 19.4531H20.9385L20.1935 10.519Z" fill="#00050C"/>
<path d="M25.333 0H5.99707V12.4219H9.21393L9.38484 10.3723C9.5376 8.53465 11.0431 7.14844 12.8876 7.14844H18.4426C20.2888 7.14844 21.7942 8.53547 21.9453 10.3748L22.116 12.4219H25.333V0Z" fill="#00050C"/>
<path d="M22.7024 19.4531H27.1494V30H28.9072V19.4531H30.665V15.9375H22.4092L22.7024 19.4531Z" fill="#00050C"/>
</g>
<defs>
<clipPath id="clip0_77_979">
<rect width="30" height="30" fill="white" transform="trandefault(0.665039)"/>
</clipPath>
</defs>
</svg>
