<svg width="31" height="30" viewBox="0 0 31 30" fill="none" xmlns="http://www.w3.org/2000/svg">
<g clip-path="url(#clip0_77_1014)">
<path d="M15.2169 8.23173C15.2169 8.38935 15.1555 8.53742 15.0441 8.64863C14.7005 8.99158 14.7001 9.5481 15.043 9.89158C15.386 10.2351 15.9425 10.2356 16.286 9.89263C17.1981 9.01906 17.1981 7.44453 16.286 6.57095C16.0571 6.35181 16.0572 5.95636 16.286 5.73722C16.6295 5.39421 16.63 4.83769 16.287 4.49421C15.944 4.15074 15.3875 4.15033 15.044 4.49322C14.6 4.9366 14.3554 5.52646 14.3555 6.15412C14.3555 6.78177 14.6 7.37158 15.0441 7.8149C15.1555 7.92611 15.2169 8.07418 15.2169 8.23173Z" fill="#00050C"/>
<path d="M26.5138 8.23173C26.5138 8.38929 26.4524 8.53742 26.341 8.64863C25.9975 8.99158 25.997 9.54804 26.3399 9.89158C26.6829 10.2351 27.2394 10.2355 27.5829 9.89263C28.4951 9.01906 28.4951 7.44453 27.5829 6.57095C27.3541 6.35181 27.3541 5.95636 27.5829 5.73722C27.9264 5.39421 27.9268 4.83769 27.5839 4.49421C27.2409 4.15074 26.6844 4.15033 26.3409 4.49322C25.8969 4.9366 25.6523 5.52646 25.6523 6.15412C25.6523 6.78177 25.8969 7.37158 26.3409 7.8149C26.4524 7.92611 26.5138 8.07423 26.5138 8.23173Z" fill="#00050C"/>
<path d="M20.6919 7.31791C20.3486 7.6611 20.3486 8.21762 20.6919 8.56086C21.0351 8.90411 21.5916 8.90411 21.9348 8.56086C22.9264 7.56928 22.9264 5.95596 21.9348 4.96438C21.6287 4.65817 21.6287 4.16 21.9348 3.85385C22.2781 3.51067 22.2781 2.95415 21.9348 2.6109C21.5917 2.26772 21.0351 2.26772 20.6919 2.6109C19.7004 3.60243 19.7004 5.21581 20.6919 6.20733C20.9981 6.51354 20.9981 7.01176 20.6919 7.31791Z" fill="#00050C"/>
<path d="M27.4269 13.1474C27.1877 12.7608 26.8552 12.4349 26.4576 12.2037C26.0531 11.9716 25.6107 11.8473 25.1565 11.8354C24.8257 11.5208 24.4239 11.296 23.9739 11.1765C23.5319 11.0583 23.0663 11.0532 22.6239 11.1576C21.8268 10.7173 20.7992 10.7185 20.0002 11.1582C19.5571 11.0532 19.0906 11.0582 18.6471 11.1767C18.204 11.2958 17.7978 11.5243 17.4668 11.8363C17.0115 11.8493 16.5629 11.975 16.1682 12.2041C15.7682 12.434 15.4341 12.7605 15.1961 13.1484C14.7893 13.2702 14.4148 13.4855 14.1055 13.7753H28.5209C28.2097 13.4842 27.8343 13.2688 27.4269 13.1474Z" fill="#00050C"/>
<path d="M29.3219 21.2442C30.1922 19.8054 30.665 18.1434 30.665 16.4121C30.665 15.9267 30.2715 15.5332 29.7861 15.5332H12.8408C12.3554 15.5332 11.9619 15.9267 11.9619 16.4121C11.9619 18.1429 12.4344 19.8049 13.3039 21.2442H29.3219Z" fill="#00050C"/>
<path d="M9.9541 12.6465C9.9541 12.1611 9.56059 11.7676 9.0752 11.7676H3.42676C2.94137 11.7676 2.54785 12.1611 2.54785 12.6465V13.7754H9.9541V12.6465Z" fill="#00050C"/>
<path d="M2.54785 15.5332H9.9541V21.2442H2.54785V15.5332Z" fill="#00050C"/>
<path d="M29.7861 23.002H1.54395C1.05855 23.002 0.665039 23.3955 0.665039 23.8809V24.8848C0.665039 26.442 1.9333 27.6465 3.42674 27.6465H27.9033C29.3967 27.6465 30.665 26.442 30.665 24.8848V23.8809C30.665 23.3955 30.2715 23.002 29.7861 23.002Z" fill="#00050C"/>
</g>
<defs>
<clipPath id="clip0_77_1014">
<rect width="30" height="30" fill="white" transform="trandefault(0.665039)"/>
</clipPath>
</defs>
</svg>
