<svg width="31" height="30" viewBox="0 0 31 30" fill="none" xmlns="http://www.w3.org/2000/svg">
<path d="M15.6652 8.82373C12.746 8.82373 10.3711 11.1987 10.3711 14.1178C10.3711 17.037 12.746 19.412 15.6652 19.412C18.5844 19.412 20.9593 17.037 20.9593 14.1178C20.9593 11.1987 18.5844 8.82373 15.6652 8.82373ZM14.544 17.3693L12.195 14.8802L13.4785 13.669L14.5806 14.8369L17.7545 11.663L19.0023 12.9108L14.544 17.3693Z" fill="#00050C"/>
<path d="M26.6065 5.41741C23.8251 4.20171 21.9533 3.31076 20.7378 0.529059L20.5066 0H10.8232L10.592 0.529059C9.37651 3.31076 7.50504 4.20153 4.72334 5.41741L4.19434 5.64853V13.8384C4.19434 17.2973 5.26998 20.6625 7.30498 23.5702C10.6465 28.3445 15.4775 29.8949 15.6649 30C15.9532 29.8382 20.6463 28.3976 24.0248 23.5702C26.0599 20.6625 27.1355 17.2973 27.1355 13.8384V5.64853L26.6065 5.41741ZM15.6649 21.1765C11.7726 21.1765 8.6061 18.0099 8.6061 14.1176C8.6061 10.2254 11.7726 7.05882 15.6649 7.05882C19.5572 7.05882 22.7238 10.2254 22.7238 14.1176C22.7238 18.0099 19.5572 21.1765 15.6649 21.1765Z" fill="#00050C"/>
</svg>
